<?xml version="1.0" encoding="utf-8"?>
<!-- Generator: Adobe Illustrator 27.5.0, SVG Export Plug-In . SVG Version: 6.00 Build 0)  -->
<svg version="1.1" xmlns="http://www.w3.org/2000/svg" xmlns:xlink="http://www.w3.org/1999/xlink" x="0px" y="0px"
	 viewBox="0 0 750 500" style="enable-background:new 0 0 750 500;" xml:space="preserve">
<g id="BACKGROUND">
</g>
<g id="OBJECTS">
	<path style="fill:#28527A;" d="M562.543,124.46c17.177,0.167,32.716,7.197,44,18.481c11.416,11.416,18.481,27.184,18.49,44.599
		h-0.035v0.035h-62.455V124.46z"/>
	<path style="fill:#28527A;" d="M561.863,62.507c-17.025-0.166-32.425-7.133-43.609-18.317
		c-11.315-11.315-18.317-26.943-18.326-44.203h0.035v-0.035h61.9V62.507z"/>
	<g>
		<g>
			<g>
				<path style="fill:#28527A;" d="M8.247,417.077c0,1.166-0.945,2.111-2.111,2.111c-1.166,0-2.111-0.945-2.111-2.111
					c0-1.166,0.945-2.111,2.111-2.111C7.302,414.966,8.247,415.911,8.247,417.077z"/>
				<path style="fill:#28527A;" d="M8.247,428.107c0,1.166-0.945,2.111-2.111,2.111c-1.166,0-2.111-0.945-2.111-2.111
					c0-1.166,0.945-2.111,2.111-2.111C7.302,425.996,8.247,426.941,8.247,428.107z"/>
				<path style="fill:#28527A;" d="M18.989,417.077c0,1.166-0.945,2.111-2.111,2.111c-1.166,0-2.111-0.945-2.111-2.111
					c0-1.166,0.945-2.111,2.111-2.111C18.044,414.966,18.989,415.911,18.989,417.077z"/>
				<path style="fill:#28527A;" d="M18.989,428.107c0,1.166-0.945,2.111-2.111,2.111c-1.166,0-2.111-0.945-2.111-2.111
					c0-1.166,0.945-2.111,2.111-2.111C18.044,425.996,18.989,426.941,18.989,428.107z"/>
			</g>
		</g>
		<g>
			<g>
				<path style="fill:#28527A;" d="M51.696,417.077c0,1.166-0.945,2.111-2.111,2.111c-1.166,0-2.111-0.945-2.111-2.111
					c0-1.166,0.945-2.111,2.111-2.111C50.751,414.966,51.696,415.911,51.696,417.077z"/>
				<path style="fill:#28527A;" d="M51.696,428.107c0,1.166-0.945,2.111-2.111,2.111c-1.166,0-2.111-0.945-2.111-2.111
					c0-1.166,0.945-2.111,2.111-2.111C50.751,425.996,51.696,426.941,51.696,428.107z"/>
				<path style="fill:#28527A;" d="M62.439,417.077c0,1.166-0.945,2.111-2.111,2.111c-1.166,0-2.111-0.945-2.111-2.111
					c0-1.166,0.945-2.111,2.111-2.111C61.494,414.966,62.439,415.911,62.439,417.077z"/>
				<path style="fill:#28527A;" d="M62.439,428.107c0,1.166-0.945,2.111-2.111,2.111c-1.166,0-2.111-0.945-2.111-2.111
					c0-1.166,0.945-2.111,2.111-2.111C61.494,425.996,62.439,426.941,62.439,428.107z"/>
			</g>
			<g>
				<path style="fill:#28527A;" d="M29.951,417.077c0,1.166-0.945,2.111-2.111,2.111c-1.166,0-2.111-0.945-2.111-2.111
					c0-1.166,0.945-2.111,2.111-2.111C29.006,414.966,29.951,415.911,29.951,417.077z"/>
				<path style="fill:#28527A;" d="M29.951,428.107c0,1.166-0.945,2.111-2.111,2.111c-1.166,0-2.111-0.945-2.111-2.111
					c0-1.166,0.945-2.111,2.111-2.111C29.006,425.996,29.951,426.941,29.951,428.107z"/>
				<path style="fill:#28527A;" d="M40.694,417.077c0,1.166-0.945,2.111-2.111,2.111c-1.166,0-2.111-0.945-2.111-2.111
					c0-1.166,0.945-2.111,2.111-2.111C39.749,414.966,40.694,415.911,40.694,417.077z"/>
				<path style="fill:#28527A;" d="M40.694,428.107c0,1.166-0.945,2.111-2.111,2.111c-1.166,0-2.111-0.945-2.111-2.111
					c0-1.166,0.945-2.111,2.111-2.111C39.749,425.996,40.694,426.941,40.694,428.107z"/>
			</g>
		</g>
	</g>
	<rect x="687.499" y="-0.011" style="fill:#8AC4D0;" width="62.501" height="62.501"/>
	<rect x="687.503" y="62.49" style="fill:#28527A;" width="62.5" height="62.5"/>
	<path style="fill:#F4D160;" d="M624.337,374.952c0.167,17.177,7.197,32.716,18.481,44c11.416,11.416,27.184,18.481,44.599,18.49
		v-0.035h0.035v-62.454H624.337z"/>
	<rect x="624.967" y="250.014" style="fill:#8AC4D0;" width="62.501" height="62.501"/>
	<rect x="437" y="0.032" style="fill:#F4D160;" width="62.706" height="62.706"/>
	<rect x="687.499" y="374.961" style="fill:#28527A;" width="62.501" height="62.501"/>
	<rect x="687.499" y="437.486" style="fill:#28527A;" width="62.501" height="62.501"/>
	<path style="fill:#FBEEAC;" d="M500.194,250.077L500.194,250.077c-17.259,0-31.25-13.991-31.25-31.25v0
		c0-17.259,13.991-31.25,31.25-31.25l0,0c17.259,0,31.25,13.991,31.25,31.25v0C531.445,236.086,517.453,250.077,500.194,250.077z"/>
	<rect x="687.503" y="187.52" style="fill:#8AC4D0;" width="62.5" height="62.5"/>
	<path style="fill:#8AC4D0;" d="M687.499,312.524L687.499,312.524v-62.501H750v0C750,284.541,722.018,312.524,687.499,312.524z"/>
	
		<rect x="624.974" y="437.495" transform="matrix(-1.836970e-16 1 -1 -1.836970e-16 1124.9691 -187.4786)" style="fill:#8AC4D0;" width="62.501" height="62.501"/>
	<path style="fill:#8AC4D0;" d="M562.47,437.495L562.47,437.495l62.501,0v62.501h0C590.452,499.996,562.47,472.013,562.47,437.495z"
		/>
	<rect x="718.884" y="125.019" style="fill:#F4D160;" width="31.119" height="62.503"/>
	<rect x="687.5" y="125.019" style="fill:#8AC4D0;" width="31.385" height="62.503"/>
	<rect x="624.991" y="187.51" style="fill:#FBEEAC;" width="62.503" height="31.385"/>
	<polygon style="fill:#F4D160;" points="624.335,31.443 624.335,62.562 561.832,62.562 561.832,62.542 593.227,62.542 
		593.227,31.443 	"/>
	<rect x="561.832" y="31.443" style="fill:#F4D160;" width="31.395" height="31.099"/>
	<rect x="561.835" y="0.059" style="fill:#8AC4D0;" width="31.395" height="31.385"/>
	<rect x="561.832" y="31.157" style="fill:#28527A;" width="31.395" height="31.385"/>
	<rect x="656.381" y="218.842" style="fill:#F4D160;" width="31.175" height="31.165"/>
	<rect x="531.369" y="156.414" style="fill:#F4D160;" width="31.175" height="31.165"/>
	<polygon style="fill:#F4D160;" points="593.851,93.365 562.676,124.531 562.676,93.365 	"/>
	<polygon style="fill:#F4D160;" points="624.702,375.091 562.523,437.25 562.523,375.091 	"/>
	<polygon style="fill:#F4D160;" points="750.053,374.975 687.48,437.528 687.48,374.975 	"/>
	<polygon style="fill:#28527A;" points="687.582,437.446 625.009,499.999 625.009,437.446 	"/>
	
		<rect x="0.071" y="437.495" transform="matrix(-1.836970e-16 1 -1 -1.836970e-16 500.0667 437.4238)" style="fill:#8AC4D0;" width="62.501" height="62.501"/>
	<path style="fill:#8AC4D0;" d="M125.076,437.495L125.076,437.495l-62.501,0v62.501l0,0
		C97.093,499.996,125.076,472.013,125.076,437.495z"/>
	<polygon style="fill:#F4D160;" points="62.844,375.091 125.022,437.25 125.022,375.091 	"/>
	<polygon style="fill:#28527A;" points="-0.037,437.446 62.536,499.999 62.536,437.446 	"/>
	<polygon style="fill:#28527A;" points="750.025,-0.014 687.499,62.491 687.499,-0.014 	"/>
	<polygon style="fill:#28527A;" points="656.228,250.008 625.053,281.173 625.053,250.008 	"/>
	<rect x="531.369" y="343.954" style="fill:#FBEEAC;" width="31.175" height="31.165"/>
	<rect x="405.888" y="0.012" style="fill:#FBEEAC;" width="31.175" height="31.165"/>
	<rect x="312.339" y="63.056" style="fill:#FBEEAC;" width="31.175" height="31.165"/>
	<rect x="31.71" y="344.094" style="fill:#FBEEAC;" width="31.175" height="31.165"/>
	<rect x="156.944" y="468.756" style="fill:#FBEEAC;" width="31.175" height="31.165"/>
	<rect x="500.288" y="218.948" style="fill:#8AC4D0;" width="31.175" height="31.165"/>
	<rect x="499.865" y="125.028" style="fill:#8AC4D0;" width="31.175" height="31.165"/>
	<path style="fill:#8AC4D0;" d="M593.602,250.105L593.602,250.105c0,17.212-13.953,31.165-31.165,31.165h-0.01v-31.165H593.602z"/>
	<path style="fill:#F4D160;" d="M593.683,343.945L593.683,343.945c0,17.212-13.953,31.165-31.165,31.165h-0.01v-31.165H593.683z"/>
	<rect x="656.299" y="156.327" style="fill:#FBEEAC;" width="31.175" height="31.165"/>
	<path style="fill:#F4D160;" d="M624.384,62.419c0.167,17.177,7.197,32.716,18.481,44c11.416,11.416,27.184,18.481,44.599,18.49
		v-0.035h0.035V62.419H624.384z"/>
	<path style="fill:#F4D160;" d="M436.995,62.682c0.167,17.105,7.159,32.578,18.383,43.815c11.356,11.368,27.04,18.403,44.362,18.412
		v-0.035h0.035V62.682H436.995z"/>
	<path style="fill:#28527A;" d="M624.384,62.493c0.167-17.177,7.197-32.716,18.481-44c11.416-11.416,27.184-18.481,44.599-18.49
		v0.035h0.035v62.455H624.384z"/>
	<path style="fill:#8AC4D0;" d="M312.091,62.818c17.177-0.167,32.716-7.197,44-18.481c11.416-11.416,18.481-27.184,18.49-44.599
		h-0.035v-0.035h-62.455V62.818z"/>
	<path style="fill:#FBEEAC;" d="M312.165,62.818c-17.177-0.167-32.716-7.197-44-18.481c-11.416-11.416-18.481-27.184-18.49-44.599
		h0.035v-0.035h62.454V62.818z"/>
	<g>
		<path style="fill:#28527A;" d="M687.453,312.57v62.46h-63.12c0.02-2.23,0.16-4.43,0.41-6.59c0.07-0.7,0.16-1.39,0.27-2.08
			c0.29-2.03,0.69-4.02,1.18-5.98c0.17-0.7,0.36-1.4,0.56-2.09c0.58-2.04,1.26-4.03,2.04-5.98c0.28-0.7,0.57-1.39,0.87-2.08
			c0.9-2.05,1.91-4.05,3.03-5.98c0.4-0.7,0.82-1.4,1.25-2.08c1.3-2.09,2.72-4.09,4.26-5.99c0.56-0.71,1.14-1.4,1.74-2.08
			c0.92-1.05,1.88-2.08,2.87-3.07c1.01-1.01,2.05-1.98,3.12-2.91c0.82-0.72,1.65-1.41,2.5-2.08c2.86-2.25,5.92-4.26,9.15-5.99
			c1.38-0.75,2.78-1.44,4.22-2.08c7.83-3.49,16.5-5.42,25.61-5.43v0.03H687.453z"/>
		<path style="fill:#FBEEAC;" d="M687.453,366.36v2.08h-62.71c0.07-0.7,0.16-1.39,0.27-2.08H687.453z"/>
		<path style="fill:#FBEEAC;" d="M687.453,358.29v2.09h-61.26c0.17-0.7,0.36-1.4,0.56-2.09H687.453z"/>
		<path style="fill:#FBEEAC;" d="M687.453,350.23v2.08h-58.66c0.28-0.7,0.57-1.39,0.87-2.08H687.453z"/>
		<path style="fill:#FBEEAC;" d="M687.453,342.17v2.08h-54.76c0.4-0.7,0.82-1.4,1.25-2.08H687.453z"/>
		<path style="fill:#FBEEAC;" d="M687.453,334.1v2.08h-49.25c0.56-0.71,1.14-1.4,1.74-2.08H687.453z"/>
		<path style="fill:#FBEEAC;" d="M687.453,326.04v2.08h-41.52c0.82-0.72,1.65-1.41,2.5-2.08H687.453z"/>
		<path style="fill:#FBEEAC;" d="M687.453,317.97v2.08h-29.87c1.38-0.75,2.78-1.44,4.22-2.08H687.453z"/>
	</g>
	<rect x="718.753" y="65.94" style="fill:#FBEEAC;" width="31.25" height="2.32"/>
	<rect x="718.753" y="72.44" style="fill:#FBEEAC;" width="31.25" height="2.32"/>
	<rect x="718.753" y="78.94" style="fill:#FBEEAC;" width="31.25" height="2.32"/>
	
		<rect x="480.19" y="173.119" transform="matrix(-1.836970e-16 1 -1 -1.836970e-16 688.2878 -339.7298)" style="fill:#FBEEAC;" width="67.637" height="2.32"/>
	
		<rect x="473.687" y="173.119" transform="matrix(-1.836970e-16 1 -1 -1.836970e-16 681.7851 -333.2271)" style="fill:#FBEEAC;" width="67.637" height="2.32"/>
	
		<rect x="467.185" y="173.119" transform="matrix(-1.836970e-16 1 -1 -1.836970e-16 675.2823 -326.7243)" style="fill:#FBEEAC;" width="67.637" height="2.32"/>
	<rect x="718.753" y="85.44" style="fill:#FBEEAC;" width="31.25" height="2.32"/>
	<rect x="718.753" y="91.95" style="fill:#FBEEAC;" width="31.25" height="2.32"/>
	<rect x="718.753" y="98.45" style="fill:#FBEEAC;" width="31.25" height="2.32"/>
	<rect x="718.753" y="104.95" style="fill:#FBEEAC;" width="31.25" height="2.32"/>
	<rect x="718.753" y="111.46" style="fill:#FBEEAC;" width="31.25" height="2.32"/>
	<rect x="718.753" y="117.96" style="fill:#FBEEAC;" width="31.25" height="2.32"/>
	<path style="fill:#28527A;" d="M750.003,187.58v62.44h-1.88c-16.35-1-29.32-14.58-29.32-31.19c0-8.63,3.5-16.44,9.16-22.1
		C733.603,191.09,741.403,187.59,750.003,187.58z"/>
	<rect x="562.542" y="187.576" style="fill:#28527A;" width="62.501" height="62.501"/>
	<path style="fill:#FBEEAC;" d="M750,374.957h-62.501v-62.501l0,0C722.018,312.457,750,340.439,750,374.957L750,374.957z"/>
	<g>
		<g>
			<g>
				<path style="fill:#28527A;" d="M406.644,42.055c0,1.166-0.945,2.111-2.111,2.111c-1.166,0-2.111-0.945-2.111-2.111
					c0-1.166,0.945-2.111,2.111-2.111C405.699,39.944,406.644,40.889,406.644,42.055z"/>
				<path style="fill:#28527A;" d="M406.644,53.085c0,1.166-0.945,2.111-2.111,2.111c-1.166,0-2.111-0.945-2.111-2.111
					s0.945-2.111,2.111-2.111C405.699,50.974,406.644,51.919,406.644,53.085z"/>
				<path style="fill:#28527A;" d="M417.387,42.055c0,1.166-0.945,2.111-2.111,2.111c-1.166,0-2.111-0.945-2.111-2.111
					c0-1.166,0.945-2.111,2.111-2.111C416.441,39.944,417.387,40.889,417.387,42.055z"/>
				<path style="fill:#28527A;" d="M417.387,53.085c0,1.166-0.945,2.111-2.111,2.111c-1.166,0-2.111-0.945-2.111-2.111
					s0.945-2.111,2.111-2.111C416.441,50.974,417.387,51.919,417.387,53.085z"/>
			</g>
			<g>
				<path style="fill:#28527A;" d="M384.899,42.055c0,1.166-0.945,2.111-2.111,2.111c-1.166,0-2.111-0.945-2.111-2.111
					c0-1.166,0.945-2.111,2.111-2.111C383.953,39.944,384.899,40.889,384.899,42.055z"/>
				<circle style="fill:#28527A;" cx="382.787" cy="53.085" r="2.111"/>
				<path style="fill:#28527A;" d="M395.641,42.055c0,1.166-0.945,2.111-2.111,2.111s-2.111-0.945-2.111-2.111
					c0-1.166,0.945-2.111,2.111-2.111S395.641,40.889,395.641,42.055z"/>
				<circle style="fill:#28527A;" cx="393.53" cy="53.085" r="2.111"/>
			</g>
		</g>
		<g>
			<g>
				<path style="fill:#28527A;" d="M450.094,42.055c0,1.166-0.945,2.111-2.111,2.111c-1.166,0-2.111-0.945-2.111-2.111
					c0-1.166,0.945-2.111,2.111-2.111C449.149,39.944,450.094,40.889,450.094,42.055z"/>
				<path style="fill:#28527A;" d="M450.094,53.085c0,1.166-0.945,2.111-2.111,2.111c-1.166,0-2.111-0.945-2.111-2.111
					s0.945-2.111,2.111-2.111C449.149,50.974,450.094,51.919,450.094,53.085z"/>
				<path style="fill:#28527A;" d="M460.836,42.055c0,1.166-0.945,2.111-2.111,2.111c-1.166,0-2.111-0.945-2.111-2.111
					c0-1.166,0.945-2.111,2.111-2.111C459.891,39.944,460.836,40.889,460.836,42.055z"/>
				<path style="fill:#28527A;" d="M460.836,53.085c0,1.166-0.945,2.111-2.111,2.111c-1.166,0-2.111-0.945-2.111-2.111
					s0.945-2.111,2.111-2.111C459.891,50.974,460.836,51.919,460.836,53.085z"/>
			</g>
			<g>
				<path style="fill:#28527A;" d="M428.348,42.055c0,1.166-0.945,2.111-2.111,2.111c-1.166,0-2.111-0.945-2.111-2.111
					c0-1.166,0.945-2.111,2.111-2.111C427.403,39.944,428.348,40.889,428.348,42.055z"/>
				<circle style="fill:#28527A;" cx="426.237" cy="53.085" r="2.111"/>
				<path style="fill:#28527A;" d="M439.091,42.055c0,1.166-0.945,2.111-2.111,2.111c-1.166,0-2.111-0.945-2.111-2.111
					c0-1.166,0.945-2.111,2.111-2.111C438.146,39.944,439.091,40.889,439.091,42.055z"/>
				<path style="fill:#28527A;" d="M439.091,53.085c0,1.166-0.945,2.111-2.111,2.111c-1.166,0-2.111-0.945-2.111-2.111
					s0.945-2.111,2.111-2.111C438.146,50.974,439.091,51.919,439.091,53.085z"/>
			</g>
		</g>
	</g>
	<g>
		<path style="fill:#28527A;" d="M636.508,165.724c0,1.166-0.945,2.111-2.111,2.111c-1.166,0-2.111-0.945-2.111-2.111
			c0-1.166,0.945-2.111,2.111-2.111C635.562,163.613,636.508,164.558,636.508,165.724z"/>
		<path style="fill:#28527A;" d="M636.508,176.754c0,1.166-0.945,2.111-2.111,2.111c-1.166,0-2.111-0.945-2.111-2.111
			c0-1.166,0.945-2.111,2.111-2.111C635.562,174.643,636.508,175.588,636.508,176.754z"/>
		<path style="fill:#28527A;" d="M647.25,165.724c0,1.166-0.945,2.111-2.111,2.111c-1.166,0-2.111-0.945-2.111-2.111
			c0-1.166,0.945-2.111,2.111-2.111C646.305,163.613,647.25,164.558,647.25,165.724z"/>
		<path style="fill:#28527A;" d="M647.25,176.754c0,1.166-0.945,2.111-2.111,2.111c-1.166,0-2.111-0.945-2.111-2.111
			c0-1.166,0.945-2.111,2.111-2.111C646.305,174.643,647.25,175.588,647.25,176.754z"/>
	</g>
	<g>
		<path style="fill:#28527A;" d="M134.985,359.032c0,1.166-0.945,2.111-2.111,2.111c-1.166,0-2.111-0.945-2.111-2.111
			c0-1.166,0.945-2.111,2.111-2.111C134.04,356.921,134.985,357.866,134.985,359.032z"/>
		<path style="fill:#28527A;" d="M134.985,370.062c0,1.166-0.945,2.111-2.111,2.111c-1.166,0-2.111-0.945-2.111-2.111
			c0-1.166,0.945-2.111,2.111-2.111C134.04,367.951,134.985,368.896,134.985,370.062z"/>
		<path style="fill:#28527A;" d="M145.728,359.032c0,1.166-0.945,2.111-2.111,2.111c-1.166,0-2.111-0.945-2.111-2.111
			c0-1.166,0.945-2.111,2.111-2.111C144.783,356.921,145.728,357.866,145.728,359.032z"/>
		<path style="fill:#28527A;" d="M145.728,370.062c0,1.166-0.945,2.111-2.111,2.111c-1.166,0-2.111-0.945-2.111-2.111
			c0-1.166,0.945-2.111,2.111-2.111C144.783,367.951,145.728,368.896,145.728,370.062z"/>
	</g>
	<g>
		<path style="fill:#28527A;" d="M516.824,381.436c0,1.166-0.945,2.111-2.111,2.111s-2.111-0.945-2.111-2.111
			c0-1.166,0.945-2.111,2.111-2.111S516.824,380.27,516.824,381.436z"/>
		<path style="fill:#28527A;" d="M516.824,392.466c0,1.166-0.945,2.111-2.111,2.111s-2.111-0.945-2.111-2.111
			c0-1.166,0.945-2.111,2.111-2.111S516.824,391.3,516.824,392.466z"/>
		<path style="fill:#28527A;" d="M527.566,381.436c0,1.166-0.945,2.111-2.111,2.111c-1.166,0-2.111-0.945-2.111-2.111
			c0-1.166,0.945-2.111,2.111-2.111C526.621,379.324,527.566,380.27,527.566,381.436z"/>
		<path style="fill:#28527A;" d="M527.566,392.466c0,1.166-0.945,2.111-2.111,2.111c-1.166,0-2.111-0.945-2.111-2.111
			c0-1.166,0.945-2.111,2.111-2.111C526.621,390.355,527.566,391.3,527.566,392.466z"/>
	</g>
	<g>
		<path style="fill:#FFFFFF;" d="M712.042,454.252c0,3.067-2.486,5.553-5.553,5.553c-3.067,0-5.553-2.486-5.553-5.553
			c0-3.067,2.486-5.553,5.553-5.553C709.556,448.698,712.042,451.185,712.042,454.252z"/>
		<path style="fill:#FFFFFF;" d="M712.042,483.266c0,3.067-2.486,5.553-5.553,5.553c-3.067,0-5.553-2.486-5.553-5.553
			c0-3.067,2.486-5.553,5.553-5.553C709.556,477.713,712.042,480.199,712.042,483.266z"/>
		<path style="fill:#FFFFFF;" d="M740.3,454.252c0,3.067-2.486,5.553-5.553,5.553c-3.067,0-5.553-2.486-5.553-5.553
			c0-3.067,2.486-5.553,5.553-5.553C737.814,448.698,740.3,451.185,740.3,454.252z"/>
		<path style="fill:#FFFFFF;" d="M740.3,483.266c0,3.067-2.486,5.553-5.553,5.553c-3.067,0-5.553-2.486-5.553-5.553
			c0-3.067,2.486-5.553,5.553-5.553C737.814,477.713,740.3,480.199,740.3,483.266z"/>
	</g>
	<g>
		<path style="fill:#FBEEAC;" d="M522.679,78.652c0,3.067-2.486,5.553-5.553,5.553s-5.553-2.486-5.553-5.553
			c0-3.067,2.486-5.553,5.553-5.553S522.679,75.585,522.679,78.652z"/>
		<path style="fill:#FBEEAC;" d="M522.679,107.666c0,3.067-2.486,5.553-5.553,5.553s-5.553-2.486-5.553-5.553
			c0-3.067,2.486-5.553,5.553-5.553S522.679,104.599,522.679,107.666z"/>
		<path style="fill:#FBEEAC;" d="M550.937,78.652c0,3.067-2.486,5.553-5.553,5.553c-3.067,0-5.553-2.486-5.553-5.553
			c0-3.067,2.486-5.553,5.553-5.553C548.45,73.098,550.937,75.585,550.937,78.652z"/>
		<path style="fill:#FBEEAC;" d="M550.937,107.666c0,3.067-2.486,5.553-5.553,5.553c-3.067,0-5.553-2.486-5.553-5.553
			c0-3.067,2.486-5.553,5.553-5.553C548.45,102.113,550.937,104.599,550.937,107.666z"/>
	</g>
</g>
</svg>
