<?xml version="1.0" encoding="utf-8"?>
<!-- Generator: Adobe Illustrator 27.5.0, SVG Export Plug-In . SVG Version: 6.00 Build 0)  -->
<svg version="1.1" xmlns="http://www.w3.org/2000/svg" xmlns:xlink="http://www.w3.org/1999/xlink" x="0px" y="0px"
	 viewBox="0 0 750 500" style="enable-background:new 0 0 750 500;" xml:space="preserve">
<g id="BACKGROUND">
	<g>
		<defs>
			<rect id="SVGID_1_" width="749.877" height="500"/>
		</defs>
		<clipPath id="SVGID_00000053525182237269628890000011887949139738280631_">
			<use xlink:href="#SVGID_1_"  style="overflow:visible;"/>
		</clipPath>
		<g style="clip-path:url(#SVGID_00000053525182237269628890000011887949139738280631_);">
			<rect style="fill:#FCFAF7;" width="749.877" height="500"/>
			<path style="fill:#FAF5F0;" d="M185.311,405.957C123.561,344.036,61.815,282.112,0,220.256V500h279.15
				C247.859,468.664,216.582,437.313,185.311,405.957z"/>
			<path style="fill:#FAF5F0;" d="M564.566,94.044c61.75,61.92,123.496,123.845,185.311,185.701V0h-279.15
				C502.018,31.336,533.295,62.687,564.566,94.044z"/>
		</g>
		<g style="clip-path:url(#SVGID_00000053525182237269628890000011887949139738280631_);">
			<g>
				<g>
					
						<rect x="27.472" y="414.335" transform="matrix(0.7071 -0.7071 0.7071 0.7071 -300.5166 151.6329)" style="fill:#5EB4CC;" width="10.617" height="48.481"/>
				</g>
				<g>
					
						<rect x="39.833" y="401.974" transform="matrix(0.7071 -0.7071 0.7071 0.7071 -288.1577 156.7552)" style="fill:#FFC46B;" width="10.617" height="48.481"/>
				</g>
			</g>
			<g>
				<g>
					
						<rect x="141.925" y="48.985" transform="matrix(0.7071 -0.7071 0.7071 0.7071 10.277 133.398)" style="fill:#5EB4CC;" width="48.481" height="10.617"/>
				</g>
				<g>
					
						<rect x="129.564" y="36.624" transform="matrix(0.7071 -0.7071 0.7071 0.7071 15.398 121.0392)" style="fill:#FFC46B;" width="48.481" height="10.617"/>
				</g>
			</g>
			<g>
				<g>
					<g>
						<path style="fill:#343154;" d="M108.762,21.936c0-21.236-17.215-38.451-38.451-38.451S31.86,0.7,31.86,21.936
							s17.215,38.451,38.451,38.451S108.762,43.172,108.762,21.936z M98.945,21.936c0,15.814-12.82,28.634-28.634,28.634
							c-15.814,0-28.634-12.82-28.634-28.634S54.497-6.698,70.311-6.698C86.125-6.698,98.945,6.122,98.945,21.936z"/>
					</g>
				</g>
				<g>
					<g>
						<path style="fill:#FF9641;" d="M94.735,24.799c0-21.236-17.215-38.451-38.451-38.451S17.834,3.563,17.834,24.799
							c0,21.236,17.215,38.451,38.451,38.451S94.735,46.035,94.735,24.799z M84.918,24.799c0,15.814-12.82,28.634-28.634,28.634
							c-15.814,0-28.633-12.82-28.633-28.634c0-15.814,12.82-28.634,28.633-28.634C72.099-3.835,84.918,8.985,84.918,24.799z"/>
					</g>
				</g>
			</g>
			<g>
				<g>
					<g>
						<path style="fill:#5EB4CC;" d="M43.318,330.41c0-13.275-10.761-24.036-24.036-24.036c-13.275,0-24.036,10.761-24.036,24.036
							c0,13.275,10.761,24.036,24.036,24.036C32.557,354.446,43.318,343.685,43.318,330.41z M37.181,330.41
							c0,9.885-8.014,17.899-17.899,17.899c-9.885,0-17.899-8.014-17.899-17.899c0-9.885,8.014-17.899,17.899-17.899
							C29.167,312.511,37.181,320.525,37.181,330.41z"/>
					</g>
				</g>
			</g>
			<g>
				<g>
					<g>
						<path style="fill:#343154;" d="M146.083,146.322c-0.487-0.487-1.277-0.487-1.764,0c-0.487,0.487-0.487,1.277,0,1.764
							c0.487,0.487,1.277,0.487,1.764,0C146.57,147.599,146.57,146.809,146.083,146.322z"/>
					</g>
					<g>
						<circle style="fill:#343154;" cx="139.763" cy="152.643" r="1.247"/>
					</g>
					<g>
						<path style="fill:#343154;" d="M135.206,157.199c-0.487-0.487-1.277-0.487-1.764,0c-0.487,0.487-0.487,1.277,0,1.764
							c0.487,0.487,1.277,0.487,1.764,0C135.693,158.476,135.693,157.686,135.206,157.199z"/>
					</g>
					<g>
						<path style="fill:#343154;" d="M129.767,162.638c-0.487-0.487-1.277-0.487-1.764,0c-0.487,0.487-0.487,1.277,0,1.764
							c0.487,0.487,1.277,0.487,1.764,0C130.254,163.915,130.254,163.125,129.767,162.638z"/>
					</g>
					<g>
						<path style="fill:#343154;" d="M124.329,168.077c-0.487-0.487-1.277-0.487-1.764,0c-0.487,0.487-0.487,1.277,0,1.764
							c0.487,0.487,1.277,0.487,1.764,0C124.816,169.353,124.816,168.564,124.329,168.077z"/>
					</g>
					<g>
						<path style="fill:#343154;" d="M118.89,173.515c-0.487-0.487-1.277-0.487-1.764,0c-0.487,0.487-0.487,1.277,0,1.764
							c0.487,0.487,1.277,0.487,1.764,0S119.377,174.002,118.89,173.515z"/>
					</g>
				</g>
				<g>
					<g>
						<circle style="fill:#343154;" cx="149.464" cy="151.467" r="1.247"/>
					</g>
					<g>
						<path style="fill:#343154;" d="M144.907,156.023c-0.487-0.487-1.277-0.487-1.764,0c-0.487,0.487-0.487,1.277,0,1.764
							c0.487,0.487,1.277,0.487,1.764,0C145.394,157.3,145.395,156.511,144.907,156.023z"/>
					</g>
					<g>
						<path style="fill:#343154;" d="M139.469,161.462c-0.487-0.487-1.277-0.487-1.764,0c-0.487,0.487-0.487,1.277,0,1.764
							c0.487,0.487,1.277,0.487,1.764,0C139.956,162.739,139.956,161.949,139.469,161.462z"/>
					</g>
					<g>
						<path style="fill:#343154;" d="M134.03,166.901c-0.487-0.487-1.277-0.487-1.764,0c-0.487,0.487-0.487,1.277,0,1.764
							c0.487,0.487,1.277,0.487,1.764,0C134.517,168.178,134.517,167.388,134.03,166.901z"/>
					</g>
					<g>
						<path style="fill:#343154;" d="M128.591,172.339c-0.487-0.487-1.277-0.487-1.764,0c-0.487,0.487-0.487,1.277,0,1.764
							c0.487,0.487,1.277,0.487,1.764,0C129.078,173.616,129.078,172.827,128.591,172.339z"/>
					</g>
					<g>
						<path style="fill:#343154;" d="M123.153,177.778c-0.487-0.487-1.277-0.487-1.764,0c-0.487,0.487-0.487,1.277,0,1.764
							s1.277,0.487,1.764,0C123.64,179.055,123.64,178.265,123.153,177.778z"/>
					</g>
				</g>
				<g>
					<g>
						<path style="fill:#343154;" d="M154.609,154.847c-0.487-0.487-1.277-0.487-1.764,0c-0.487,0.487-0.487,1.277,0,1.764
							c0.487,0.487,1.277,0.487,1.764,0C155.096,156.124,155.096,155.335,154.609,154.847z"/>
					</g>
					<g>
						<path style="fill:#343154;" d="M149.17,160.286c-0.487-0.487-1.277-0.487-1.764,0c-0.487,0.487-0.487,1.277,0,1.764
							c0.487,0.487,1.277,0.487,1.764,0C149.657,161.563,149.657,160.773,149.17,160.286z"/>
					</g>
					<g>
						<path style="fill:#343154;" d="M143.731,165.725c-0.487-0.487-1.277-0.487-1.764,0c-0.487,0.487-0.487,1.277,0,1.764
							c0.487,0.487,1.277,0.487,1.764,0C144.219,167.002,144.219,166.212,143.731,165.725z"/>
					</g>
					<g>
						<path style="fill:#343154;" d="M138.293,171.163c-0.487-0.487-1.277-0.487-1.764,0c-0.487,0.487-0.487,1.277,0,1.764
							c0.487,0.487,1.277,0.487,1.764,0C138.78,172.44,138.78,171.651,138.293,171.163z"/>
					</g>
					<g>
						<path style="fill:#343154;" d="M132.854,176.602c-0.487-0.487-1.277-0.487-1.764,0c-0.487,0.487-0.487,1.277,0,1.764
							c0.487,0.487,1.277,0.487,1.764,0C133.341,177.879,133.341,177.089,132.854,176.602z"/>
					</g>
					<g>
						<path style="fill:#343154;" d="M127.415,182.041c-0.487-0.487-1.277-0.487-1.764,0c-0.487,0.487-0.487,1.277,0,1.764
							c0.487,0.487,1.277,0.487,1.764,0C127.902,183.318,127.902,182.528,127.415,182.041z"/>
					</g>
				</g>
			</g>
			<g>
				
					<ellipse transform="matrix(0.993 -0.1177 0.1177 0.993 -12.353 17.3576)" style="fill:none;stroke:#343154;stroke-width:3;stroke-linejoin:round;stroke-miterlimit:10;" cx="140.738" cy="113.235" rx="12.966" ry="12.966"/>
				
					<ellipse transform="matrix(0.993 -0.1177 0.1177 0.993 -12.4461 15.7814)" style="fill:none;stroke:#FFAF6D;stroke-width:3;stroke-linejoin:round;stroke-miterlimit:10;" cx="127.351" cy="113.235" rx="12.966" ry="12.966"/>
			</g>
			<g>
				
					<circle style="fill:none;stroke:#343154;stroke-width:3;stroke-linejoin:round;stroke-miterlimit:10;" cx="110.521" cy="464.91" r="12.966"/>
				
					<circle style="fill:none;stroke:#FFAF6D;stroke-width:3;stroke-linejoin:round;stroke-miterlimit:10;" cx="101.055" cy="474.376" r="12.966"/>
			</g>
			<g>
				<path style="fill:none;stroke:#343154;stroke-width:3;stroke-linejoin:round;stroke-miterlimit:10;" d="M128.63,318.73
					c-3.997,3.997-3.997,10.478,0,14.476c3.997,3.997,10.478,3.997,14.476,0c3.997-3.997,3.997-10.478,0-14.476
					C139.108,314.733,132.627,314.733,128.63,318.73z"/>
				<path style="fill:none;stroke:#FFAF6D;stroke-width:3;stroke-linejoin:round;stroke-miterlimit:10;" d="M121.157,311.257
					c-3.997,3.997-3.997,10.478,0,14.476c3.997,3.997,10.478,3.997,14.476,0c3.997-3.997,3.997-10.478,0-14.476
					S125.154,307.26,121.157,311.257z"/>
			</g>
			<g>
				<polygon style="fill:#343154;" points="23.396,279.19 33.169,269.417 23.396,259.643 29.187,253.852 38.961,263.625 
					48.735,253.852 54.526,259.643 44.753,269.417 54.526,279.19 48.735,284.982 38.961,275.209 29.187,284.982 				"/>
			</g>
			<g>
				<polygon style="fill:#343154;" points="76.274,300.872 81.48,295.666 76.274,290.46 79.359,287.375 84.565,292.581 
					89.77,287.375 92.855,290.46 87.649,295.666 92.855,300.872 89.77,303.957 84.565,298.751 79.359,303.957 				"/>
			</g>
			<g>
				<g>
					<g>
						<path style="fill:#343154;" d="M44.005,376.757c-0.883,0.947-0.831,2.43,0.115,3.313c0.947,0.883,2.43,0.831,3.313-0.115
							c0.883-0.947,0.831-2.43-0.115-3.313C46.371,375.758,44.888,375.81,44.005,376.757z"/>
					</g>
					<g>
						<path style="fill:#343154;" d="M52.227,367.941c-0.883,0.947-0.831,2.43,0.115,3.313c0.947,0.883,2.43,0.831,3.313-0.115
							c0.883-0.947,0.831-2.43-0.115-3.313C54.593,366.943,53.11,366.994,52.227,367.941z"/>
					</g>
					<g>
						<path style="fill:#343154;" d="M60.449,359.126c-0.883,0.947-0.831,2.43,0.115,3.313c0.947,0.883,2.43,0.831,3.313-0.115
							c0.883-0.947,0.831-2.43-0.115-3.313C62.815,358.127,61.332,358.179,60.449,359.126z"/>
					</g>
					<g>
						<path style="fill:#343154;" d="M68.671,350.31c-0.883,0.947-0.831,2.43,0.115,3.313c0.947,0.883,2.43,0.831,3.313-0.115
							c0.883-0.947,0.831-2.43-0.115-3.313C71.037,349.312,69.554,349.363,68.671,350.31z"/>
					</g>
					<g>
						<path style="fill:#343154;" d="M76.893,341.494c-0.883,0.947-0.831,2.43,0.115,3.313c0.947,0.883,2.43,0.831,3.313-0.115
							c0.883-0.947,0.831-2.43-0.115-3.313C79.259,340.496,77.776,340.548,76.893,341.494z"/>
					</g>
					<g>
						<path style="fill:#343154;" d="M85.115,332.679c-0.883,0.947-0.831,2.43,0.115,3.313c0.947,0.883,2.43,0.831,3.313-0.115
							c0.883-0.947,0.831-2.43-0.115-3.313C87.481,331.681,85.998,331.732,85.115,332.679z"/>
					</g>
				</g>
				<g>
					<g>
						<path style="fill:#343154;" d="M53.065,385.207c-0.883,0.947-0.831,2.43,0.116,3.313c0.947,0.883,2.43,0.831,3.313-0.115
							c0.883-0.947,0.831-2.43-0.115-3.313C55.431,384.209,53.948,384.26,53.065,385.207z"/>
					</g>
					<g>
						<path style="fill:#343154;" d="M61.287,376.391c-0.883,0.947-0.831,2.43,0.115,3.313s2.43,0.831,3.313-0.115
							c0.883-0.947,0.831-2.43-0.115-3.313C63.653,375.393,62.17,375.445,61.287,376.391z"/>
					</g>
					<g>
						<path style="fill:#343154;" d="M69.509,367.576c-0.883,0.947-0.831,2.43,0.115,3.313c0.947,0.883,2.43,0.831,3.313-0.116
							c0.883-0.947,0.831-2.43-0.116-3.313C71.875,366.578,70.392,366.629,69.509,367.576z"/>
					</g>
					<g>
						<path style="fill:#343154;" d="M77.731,358.76c-0.883,0.947-0.831,2.43,0.115,3.313c0.947,0.883,2.43,0.831,3.313-0.115
							c0.883-0.947,0.831-2.43-0.115-3.313C80.097,357.762,78.614,357.814,77.731,358.76z"/>
					</g>
					<g>
						<path style="fill:#343154;" d="M85.953,349.945c-0.883,0.947-0.831,2.43,0.115,3.313c0.947,0.883,2.43,0.831,3.313-0.115
							c0.883-0.947,0.831-2.43-0.115-3.313C88.319,348.946,86.836,348.998,85.953,349.945z"/>
					</g>
					<g>
						<path style="fill:#343154;" d="M94.175,341.129c-0.883,0.947-0.831,2.43,0.115,3.313c0.947,0.883,2.43,0.831,3.313-0.115
							c0.883-0.947,0.831-2.43-0.115-3.313C96.541,340.131,95.058,340.183,94.175,341.129z"/>
					</g>
				</g>
				<g>
					<g>
						<path style="fill:#343154;" d="M62.125,393.657c-0.883,0.947-0.831,2.43,0.115,3.313c0.947,0.883,2.43,0.831,3.313-0.115
							c0.883-0.947,0.831-2.43-0.116-3.313C64.492,392.659,63.008,392.711,62.125,393.657z"/>
					</g>
					<g>
						<path style="fill:#343154;" d="M70.348,384.842c-0.883,0.947-0.831,2.43,0.115,3.313s2.43,0.831,3.313-0.115
							c0.883-0.947,0.831-2.43-0.115-3.313C72.714,383.844,71.23,383.895,70.348,384.842z"/>
					</g>
					<g>
						<path style="fill:#343154;" d="M78.57,376.026c-0.883,0.947-0.831,2.43,0.115,3.313c0.947,0.883,2.43,0.831,3.313-0.115
							c0.883-0.947,0.831-2.43-0.115-3.313C80.936,375.028,79.452,375.08,78.57,376.026z"/>
					</g>
					<g>
						<path style="fill:#343154;" d="M86.792,367.211c-0.883,0.947-0.831,2.43,0.115,3.313c0.947,0.883,2.43,0.831,3.313-0.115
							c0.883-0.947,0.831-2.43-0.115-3.313C89.158,366.212,87.674,366.264,86.792,367.211z"/>
					</g>
					<g>
						<path style="fill:#343154;" d="M95.014,358.395c-0.883,0.947-0.831,2.43,0.115,3.313c0.947,0.883,2.43,0.831,3.313-0.115
							c0.883-0.947,0.831-2.43-0.115-3.313C97.38,357.397,95.896,357.449,95.014,358.395z"/>
					</g>
					<g>
						<path style="fill:#343154;" d="M103.236,349.58c-0.883,0.947-0.831,2.43,0.115,3.313c0.947,0.883,2.43,0.831,3.313-0.115
							c0.883-0.947,0.831-2.43-0.115-3.313C105.602,348.581,104.119,348.633,103.236,349.58z"/>
					</g>
				</g>
				<g>
					<g>
						<path style="fill:#343154;" d="M71.186,402.108c-0.883,0.947-0.831,2.43,0.115,3.313c0.947,0.883,2.43,0.831,3.313-0.115
							c0.883-0.947,0.831-2.43-0.115-3.313C73.552,401.109,72.069,401.161,71.186,402.108z"/>
					</g>
					<g>
						<path style="fill:#343154;" d="M79.408,393.292c-0.883,0.947-0.831,2.43,0.115,3.313c0.947,0.883,2.43,0.831,3.313-0.116
							c0.883-0.947,0.831-2.43-0.115-3.313C81.774,392.294,80.291,392.346,79.408,393.292z"/>
					</g>
					<g>
						<path style="fill:#343154;" d="M87.63,384.477c-0.883,0.947-0.831,2.43,0.115,3.313c0.947,0.883,2.43,0.831,3.313-0.115
							c0.883-0.947,0.831-2.43-0.115-3.313C89.996,383.478,88.513,383.53,87.63,384.477z"/>
					</g>
					<g>
						<path style="fill:#343154;" d="M95.852,375.661c-0.883,0.947-0.831,2.43,0.115,3.313c0.947,0.883,2.43,0.831,3.313-0.115
							c0.883-0.947,0.831-2.43-0.115-3.313C98.218,374.663,96.735,374.715,95.852,375.661z"/>
					</g>
					<g>
						<path style="fill:#343154;" d="M104.074,366.846c-0.883,0.947-0.831,2.43,0.115,3.313c0.947,0.883,2.43,0.831,3.313-0.115
							c0.883-0.947,0.831-2.43-0.115-3.313C106.44,365.847,104.957,365.899,104.074,366.846z"/>
					</g>
					<g>
						<path style="fill:#343154;" d="M112.296,358.03c-0.883,0.947-0.831,2.43,0.115,3.313c0.947,0.883,2.43,0.831,3.313-0.115
							c0.883-0.947,0.831-2.43-0.115-3.313C114.662,357.032,113.179,357.083,112.296,358.03z"/>
					</g>
				</g>
				<g>
					<g>
						<path style="fill:#343154;" d="M80.246,410.558c-0.883,0.947-0.831,2.43,0.115,3.313c0.947,0.883,2.43,0.831,3.313-0.115
							c0.883-0.947,0.831-2.43-0.115-3.313C82.612,409.56,81.129,409.612,80.246,410.558z"/>
					</g>
					<g>
						<path style="fill:#343154;" d="M88.468,401.743c-0.883,0.947-0.831,2.43,0.115,3.313c0.947,0.883,2.43,0.831,3.313-0.115
							c0.883-0.947,0.831-2.43-0.115-3.313C90.835,400.744,89.351,400.796,88.468,401.743z"/>
					</g>
					<g>
						<path style="fill:#343154;" d="M96.69,392.927c-0.883,0.947-0.831,2.43,0.115,3.313c0.947,0.883,2.43,0.831,3.313-0.115
							c0.883-0.947,0.831-2.43-0.115-3.313C99.057,391.929,97.573,391.981,96.69,392.927z"/>
					</g>
					<g>
						<path style="fill:#343154;" d="M104.912,384.112c-0.883,0.947-0.831,2.43,0.115,3.313c0.947,0.883,2.43,0.831,3.313-0.115
							c0.883-0.947,0.831-2.43-0.115-3.313C107.279,383.113,105.795,383.165,104.912,384.112z"/>
					</g>
					<g>
						<path style="fill:#343154;" d="M113.134,375.296c-0.883,0.947-0.831,2.43,0.115,3.313c0.947,0.883,2.43,0.831,3.313-0.115
							c0.883-0.947,0.831-2.43-0.115-3.313C115.501,374.298,114.017,374.349,113.134,375.296z"/>
					</g>
					<g>
						<path style="fill:#343154;" d="M121.356,366.481c-0.883,0.947-0.831,2.43,0.115,3.313c0.947,0.883,2.43,0.831,3.313-0.115
							c0.883-0.947,0.831-2.43-0.115-3.313C123.723,365.482,122.239,365.534,121.356,366.481z"/>
					</g>
				</g>
				<g>
					<g>
						<path style="fill:#343154;" d="M89.307,419.009c-0.883,0.947-0.831,2.43,0.115,3.313c0.947,0.883,2.43,0.831,3.313-0.115
							c0.883-0.947,0.831-2.43-0.115-3.313C91.673,418.01,90.19,418.062,89.307,419.009z"/>
					</g>
					<g>
						<path style="fill:#343154;" d="M97.529,410.193c-0.883,0.947-0.831,2.43,0.115,3.313c0.947,0.883,2.43,0.831,3.313-0.115
							c0.883-0.947,0.831-2.43-0.115-3.313C99.895,409.195,98.412,409.246,97.529,410.193z"/>
					</g>
					<g>
						<path style="fill:#343154;" d="M105.751,401.378c-0.883,0.947-0.831,2.43,0.116,3.313c0.947,0.883,2.43,0.831,3.313-0.115
							c0.883-0.947,0.831-2.43-0.115-3.313C108.117,400.379,106.634,400.431,105.751,401.378z"/>
					</g>
					<g>
						<path style="fill:#343154;" d="M113.973,392.562c-0.883,0.947-0.831,2.43,0.115,3.313c0.947,0.883,2.43,0.831,3.313-0.115
							c0.883-0.947,0.831-2.43-0.115-3.313C116.339,391.564,114.856,391.615,113.973,392.562z"/>
					</g>
					<g>
						<path style="fill:#343154;" d="M122.195,383.747c-0.883,0.947-0.831,2.43,0.115,3.313c0.947,0.883,2.43,0.831,3.313-0.115
							c0.883-0.947,0.831-2.43-0.115-3.313C124.561,382.748,123.078,382.8,122.195,383.747z"/>
					</g>
					<g>
						<path style="fill:#343154;" d="M130.417,374.931c-0.883,0.947-0.831,2.43,0.115,3.313c0.947,0.883,2.43,0.831,3.313-0.115
							c0.883-0.947,0.831-2.43-0.115-3.313C132.783,373.933,131.3,373.984,130.417,374.931z"/>
					</g>
				</g>
			</g>
			<g>
				<g>
					<g>
						<path style="fill:#FF9641;" d="M89.699,258.934c-11.875-11.875-11.875-31.128,0-43.003c11.875-11.875,31.128-11.875,43.003,0
							c11.875,11.875,11.875,31.128,0,43.003C120.827,270.809,101.574,270.809,89.699,258.934z"/>
					</g>
				</g>
				<g>
					<g>
						<path style="fill:#343154;" d="M159.566,218.273c-6.772-6.772-17.751-6.772-24.523,0c-6.772,6.772-6.772,17.751,0,24.523
							c6.772,6.772,17.751,6.772,24.523,0C166.338,236.024,166.338,225.045,159.566,218.273z M138.173,239.665
							c-5.043-5.043-5.043-13.219,0-18.262c5.043-5.043,13.219-5.043,18.262,0c5.043,5.043,5.043,13.219,0,18.262
							C151.393,244.708,143.217,244.708,138.173,239.665z"/>
					</g>
				</g>
			</g>
			<g>
				<g>
					<g>
						<path style="fill:#5EB4CC;" d="M69.849,88.54c-28.707-28.707-75.25-28.707-103.957,0s-28.707,75.25,0,103.957
							c28.707,28.707,75.25,28.707,103.957,0C98.555,163.79,98.555,117.247,69.849,88.54z M-20.837,179.225
							c-21.377-21.377-21.378-56.037,0-77.415c21.378-21.378,56.037-21.377,77.415,0c21.377,21.377,21.377,56.037,0,77.415
							C35.2,200.603,0.54,200.603-20.837,179.225z"/>
					</g>
				</g>
			</g>
			<g>
				<g>
					<g>
						<path style="fill:#FFFFFF;" d="M48.642,109.746c-16.995-16.995-44.549-16.995-61.544,0c-16.995,16.995-16.995,44.549,0,61.544
							c16.995,16.995,44.549,16.995,61.544,0C65.637,154.295,65.637,126.741,48.642,109.746z M-5.045,163.433
							c-12.656-12.656-12.656-33.175,0-45.83c12.656-12.656,33.175-12.656,45.831,0c12.656,12.656,12.656,33.175,0,45.83
							C28.13,176.089,7.611,176.089-5.045,163.433z"/>
					</g>
				</g>
			</g>
			<g>
				<g>
					
						<rect x="68.371" y="125.025" transform="matrix(0.7071 -0.7071 0.7071 0.7071 -111.5614 107.103)" style="fill:#FFC46B;" width="10.269" height="126.389"/>
				</g>
				<g>
					
						<rect x="56.415" y="136.98" transform="matrix(0.7071 -0.7071 0.7071 0.7071 -123.5176 102.1521)" style="fill:#FFC46B;" width="10.269" height="126.389"/>
				</g>
			</g>
			<g>
				<g>
					
						<rect x="180.615" y="390.233" transform="matrix(0.7071 -0.7071 0.7071 0.7071 -266.9579 283.693)" style="fill:#FF9641;" width="56.708" height="147.721"/>
				</g>
				<g>
					<g>
						<path style="fill:#343154;" d="M176.791,379.951l98.797,98.797l-34.442,34.442l-98.797-98.797L176.791,379.951
							 M176.791,374.294l-40.099,40.099l104.454,104.454l40.099-40.099L176.791,374.294L176.791,374.294z"/>
					</g>
				</g>
			</g>
			<g>
				<g>
					<circle style="fill:#FF9641;" cx="213.517" cy="75.393" r="9.706"/>
				</g>
				<g>
					<path style="fill:none;stroke:#FFAF6D;stroke-width:3;stroke-linejoin:round;stroke-miterlimit:10;" d="M265.436,41.803
						l-59.946,59.946c-5.061,5.061-13.268,5.061-18.329,0h0c-5.061-5.062-5.061-13.268,0-18.329l59.946-59.946
						c5.061-5.061,13.268-5.061,18.329,0l0,0C270.497,28.535,270.497,36.741,265.436,41.803z"/>
					<g>
						<g>
							<path style="fill:#343154;" d="M255.163,28.04c1.524,0,2.957,0.594,4.035,1.671c2.225,2.225,2.225,5.845,0,8.069
								c-1.078,1.078-2.511,1.671-4.035,1.671c-1.524,0-2.957-0.594-4.035-1.671c-2.225-2.225-2.225-5.845,0-8.069
								C252.206,28.634,253.639,28.04,255.163,28.04 M255.163,24.04c-2.484,0-4.968,0.948-6.863,2.843
								c-3.79,3.791-3.79,9.936,0,13.727c1.895,1.895,4.379,2.843,6.863,2.843s4.968-0.948,6.863-2.843
								c3.79-3.791,3.79-9.936,0-13.727C260.131,24.988,257.647,24.04,255.163,24.04L255.163,24.04z"/>
						</g>
					</g>
					<g>
						<path style="fill:#5EB4CC;" d="M190.748,98.162c-3.79-3.79-3.79-9.936,0-13.727c3.79-3.79,9.936-3.79,13.727,0
							c3.79,3.791,3.79,9.936,0,13.727C200.684,101.952,194.538,101.952,190.748,98.162z"/>
					</g>
				</g>
			</g>
			<g>
				<g>
					<polygon style="fill:#FFAF6D;" points="227.324,120.333 235.49,112.167 231.248,112.167 223.082,120.333 					"/>
				</g>
				<g>
					<g>
						<polygon style="fill:#FF9641;" points="287.789,50.167 337.955,0 333.713,0 283.547,50.167 						"/>
					</g>
					<g>
						<polygon style="fill:#FF9641;" points="276.672,57.042 201.047,132.667 205.289,132.667 280.914,57.042 						"/>
					</g>
					<g>
						<polygon style="fill:#FF9641;" points="194.047,139.667 172.38,161.333 176.623,161.333 198.289,139.667 						"/>
					</g>
					<g>
						<polygon style="fill:#FFAF6D;" points="243.157,104.5 347.657,0 343.415,0 238.915,104.5 						"/>
					</g>
					<g>
						<polygon style="fill:#5EB4CC;" points="325.441,31.917 357.358,0 353.116,0 321.199,31.917 						"/>
					</g>
					<g>
						<polygon style="fill:#5EB4CC;" points="305.449,47.667 213.117,140 217.359,140 309.691,47.667 						"/>
					</g>
				</g>
			</g>
		</g>
		<g style="clip-path:url(#SVGID_00000053525182237269628890000011887949139738280631_);">
			<g>
				<g>
					
						<rect x="711.911" y="37.188" transform="matrix(0.7071 -0.7071 0.7071 0.7071 166.6323 525.1425)" style="fill:#5EB4CC;" width="10.617" height="48.481"/>
				</g>
				<g>
					
						<rect x="699.55" y="49.548" transform="matrix(0.7071 -0.7071 0.7071 0.7071 154.2708 520.0215)" style="fill:#FFC46B;" width="10.617" height="48.481"/>
				</g>
			</g>
			<g>
				<g>
					
						<rect x="485.033" y="466.711" transform="matrix(0.7071 -0.7071 0.7071 0.7071 -172.3676 527.9068)" style="fill:#5EB4CC;" width="132.044" height="10.617"/>
				</g>
				<g>
					
						<rect x="497.394" y="479.071" transform="matrix(0.7071 -0.7071 0.7071 0.7071 -177.4876 540.2667)" style="fill:#FFC46B;" width="132.044" height="10.617"/>
				</g>
				<g>
					
						<rect x="509.779" y="491.456" transform="matrix(0.7071 -0.7071 0.7071 0.7071 -182.6173 552.6569)" style="fill:#FF9641;" width="132.044" height="10.617"/>
				</g>
			</g>
			<g>
				<g>
					<g>
						<path style="fill:#343154;" d="M641.238,478.068c0,21.236,17.215,38.451,38.451,38.451s38.451-17.215,38.451-38.451
							c0-21.236-17.215-38.451-38.451-38.451S641.238,456.832,641.238,478.068z M651.055,478.068
							c0-15.814,12.82-28.634,28.634-28.634c15.814,0,28.634,12.82,28.634,28.634c0,15.814-12.82,28.634-28.634,28.634
							C663.875,506.702,651.055,493.882,651.055,478.068z"/>
					</g>
				</g>
				<g>
					<g>
						<path style="fill:#FFC46B;" d="M655.228,475.205c0,21.236,17.215,38.451,38.451,38.451s38.451-17.215,38.451-38.451
							s-17.215-38.451-38.451-38.451S655.228,453.969,655.228,475.205z M665.045,475.205c0-15.814,12.82-28.634,28.634-28.634
							c15.814,0,28.633,12.82,28.633,28.634c0,15.814-12.82,28.634-28.633,28.634C677.865,503.838,665.045,491.019,665.045,475.205z
							"/>
					</g>
				</g>
			</g>
			<g>
				<g>
					<g>
						<path style="fill:#5EB4CC;" d="M706.682,169.594c0,13.275,10.761,24.036,24.036,24.036c13.275,0,24.036-10.761,24.036-24.036
							s-10.761-24.036-24.036-24.036C717.443,145.558,706.682,156.319,706.682,169.594z M712.819,169.594
							c0-9.885,8.014-17.899,17.899-17.899c9.885,0,17.899,8.014,17.899,17.899c0,9.885-8.014,17.899-17.899,17.899
							C720.833,187.493,712.819,179.479,712.819,169.594z"/>
					</g>
				</g>
			</g>
			<g>
				
					<circle style="fill:none;stroke:#343154;stroke-width:3;stroke-linejoin:round;stroke-miterlimit:10;" cx="609.261" cy="386.769" r="12.966"/>
				
					<circle style="fill:none;stroke:#FFAF6D;stroke-width:3;stroke-linejoin:round;stroke-miterlimit:10;" cx="622.648" cy="386.769" r="12.966"/>
			</g>
			<g>
				
					<circle style="fill:none;stroke:#343154;stroke-width:3;stroke-linejoin:round;stroke-miterlimit:10;" cx="639.479" cy="35.093" r="12.966"/>
				<path style="fill:none;stroke:#FFAF6D;stroke-width:3;stroke-linejoin:round;stroke-miterlimit:10;" d="M658.113,16.459
					c-5.064-5.064-13.273-5.064-18.337,0c-5.064,5.063-5.064,13.273,0,18.337c5.063,5.064,13.273,5.064,18.337,0
					S663.177,21.522,658.113,16.459z"/>
			</g>
			<g>
				<path style="fill:none;stroke:#343154;stroke-width:3;stroke-linejoin:round;stroke-miterlimit:10;" d="M621.37,181.274
					c3.997-3.997,3.997-10.478,0-14.476c-3.997-3.997-10.478-3.997-14.476,0c-3.997,3.997-3.997,10.478,0,14.476
					C610.892,185.271,617.373,185.271,621.37,181.274z"/>
				<path style="fill:none;stroke:#FFAF6D;stroke-width:3;stroke-linejoin:round;stroke-miterlimit:10;" d="M628.843,188.746
					c3.997-3.997,3.997-10.478,0-14.476c-3.997-3.997-10.478-3.997-14.476,0c-3.997,3.997-3.997,10.478,0,14.476
					C618.365,192.744,624.846,192.744,628.843,188.746z"/>
			</g>
			<g>
				<polygon style="fill:#343154;" points="727.667,226.472 717.893,236.246 727.667,246.019 721.875,251.811 712.101,242.037 
					702.328,251.811 696.536,246.019 706.309,236.246 696.536,226.472 702.328,220.68 712.101,230.454 721.875,220.68 				"/>
			</g>
			<g>
				<polygon style="fill:#343154;" points="670.623,207.423 665.417,212.628 670.623,217.834 667.538,220.919 662.333,215.713 
					657.127,220.919 654.042,217.834 659.248,212.628 654.042,207.423 657.127,204.338 662.333,209.544 667.538,204.338 				"/>
			</g>
			<g>
				<g>
					<g>
						<path style="fill:#343154;" d="M705.995,123.247c0.883-0.947,0.831-2.43-0.115-3.313c-0.947-0.883-2.43-0.831-3.313,0.115
							c-0.883,0.947-0.831,2.43,0.115,3.313C703.629,124.246,705.112,124.194,705.995,123.247z"/>
					</g>
					<g>
						<path style="fill:#343154;" d="M697.773,132.063c0.883-0.947,0.831-2.43-0.115-3.313c-0.947-0.883-2.43-0.831-3.313,0.115
							c-0.883,0.947-0.831,2.43,0.115,3.313C695.407,133.061,696.89,133.009,697.773,132.063z"/>
					</g>
					<g>
						<path style="fill:#343154;" d="M689.551,140.878c0.883-0.947,0.831-2.43-0.115-3.313c-0.947-0.883-2.43-0.831-3.313,0.115
							c-0.883,0.947-0.831,2.43,0.115,3.313C687.185,141.877,688.668,141.825,689.551,140.878z"/>
					</g>
					<g>
						<path style="fill:#343154;" d="M681.329,149.694c0.883-0.947,0.831-2.43-0.115-3.313c-0.947-0.883-2.43-0.831-3.313,0.115
							c-0.883,0.947-0.831,2.43,0.115,3.313C678.963,150.692,680.446,150.641,681.329,149.694z"/>
					</g>
					<g>
						<path style="fill:#343154;" d="M673.107,158.509c0.883-0.947,0.831-2.43-0.115-3.313c-0.947-0.883-2.43-0.831-3.313,0.115
							c-0.883,0.947-0.831,2.43,0.115,3.313C670.741,159.508,672.224,159.456,673.107,158.509z"/>
					</g>
					<g>
						<path style="fill:#343154;" d="M664.885,167.325c0.883-0.947,0.831-2.43-0.115-3.313c-0.947-0.883-2.43-0.831-3.313,0.115
							c-0.883,0.947-0.831,2.43,0.115,3.313C662.519,168.323,664.002,168.272,664.885,167.325z"/>
					</g>
				</g>
				<g>
					<g>
						<path style="fill:#343154;" d="M696.935,114.797c0.883-0.947,0.831-2.43-0.115-3.313c-0.947-0.883-2.43-0.831-3.313,0.115
							c-0.883,0.947-0.831,2.43,0.115,3.313C694.569,115.795,696.052,115.744,696.935,114.797z"/>
					</g>
					<g>
						<path style="fill:#343154;" d="M688.713,123.612c0.883-0.947,0.831-2.43-0.115-3.313c-0.947-0.883-2.43-0.831-3.313,0.115
							c-0.883,0.947-0.831,2.43,0.115,3.313C686.346,124.611,687.83,124.559,688.713,123.612z"/>
					</g>
					<g>
						<path style="fill:#343154;" d="M680.491,132.428c0.883-0.947,0.831-2.43-0.115-3.313c-0.947-0.883-2.43-0.831-3.313,0.115
							s-0.831,2.43,0.115,3.313C678.125,133.426,679.608,133.375,680.491,132.428z"/>
					</g>
					<g>
						<path style="fill:#343154;" d="M672.269,141.243c0.883-0.947,0.831-2.43-0.115-3.313c-0.947-0.883-2.43-0.831-3.313,0.115
							c-0.883,0.947-0.831,2.43,0.115,3.313C669.902,142.242,671.386,142.19,672.269,141.243z"/>
					</g>
					<g>
						<path style="fill:#343154;" d="M664.047,150.059c0.883-0.947,0.831-2.43-0.115-3.313c-0.947-0.883-2.43-0.831-3.313,0.115
							c-0.883,0.947-0.831,2.43,0.115,3.313C661.68,151.057,663.164,151.006,664.047,150.059z"/>
					</g>
					<g>
						<path style="fill:#343154;" d="M655.825,158.875c0.883-0.947,0.831-2.43-0.115-3.313c-0.947-0.883-2.43-0.831-3.313,0.115
							c-0.883,0.947-0.831,2.43,0.115,3.313C653.458,159.873,654.942,159.821,655.825,158.875z"/>
					</g>
				</g>
				<g>
					<g>
						<path style="fill:#343154;" d="M687.874,106.346c0.883-0.947,0.831-2.43-0.115-3.313c-0.947-0.883-2.43-0.831-3.313,0.115
							c-0.883,0.947-0.831,2.43,0.116,3.313C685.508,107.345,686.991,107.293,687.874,106.346z"/>
					</g>
					<g>
						<path style="fill:#343154;" d="M679.652,115.162c0.883-0.947,0.831-2.43-0.115-3.313c-0.947-0.883-2.43-0.831-3.313,0.115
							c-0.883,0.947-0.831,2.43,0.115,3.313C677.286,116.16,678.769,116.109,679.652,115.162z"/>
					</g>
					<g>
						<path style="fill:#343154;" d="M671.43,123.977c0.883-0.947,0.831-2.43-0.115-3.313c-0.947-0.883-2.43-0.831-3.313,0.115
							c-0.883,0.947-0.831,2.43,0.115,3.313C669.064,124.976,670.547,124.924,671.43,123.977z"/>
					</g>
					<g>
						<path style="fill:#343154;" d="M663.208,132.793c0.883-0.947,0.831-2.43-0.115-3.313c-0.947-0.883-2.43-0.831-3.313,0.115
							c-0.883,0.947-0.831,2.43,0.115,3.313C660.842,133.791,662.325,133.74,663.208,132.793z"/>
					</g>
					<g>
						<path style="fill:#343154;" d="M654.986,141.609c0.883-0.947,0.831-2.43-0.115-3.313c-0.947-0.883-2.43-0.831-3.313,0.115
							c-0.883,0.947-0.831,2.43,0.115,3.313C652.62,142.607,654.103,142.555,654.986,141.609z"/>
					</g>
					<g>
						<path style="fill:#343154;" d="M646.764,150.424c0.883-0.947,0.831-2.43-0.116-3.313c-0.947-0.883-2.43-0.831-3.313,0.115
							c-0.883,0.947-0.831,2.43,0.115,3.313C644.398,151.422,645.881,151.371,646.764,150.424z"/>
					</g>
				</g>
				<g>
					<g>
						<path style="fill:#343154;" d="M678.814,97.896c0.883-0.947,0.831-2.43-0.115-3.313c-0.947-0.883-2.43-0.831-3.313,0.115
							c-0.883,0.947-0.831,2.43,0.115,3.313C676.448,98.894,677.931,98.843,678.814,97.896z"/>
					</g>
					<g>
						<path style="fill:#343154;" d="M670.592,106.712c0.883-0.947,0.831-2.43-0.115-3.313c-0.947-0.883-2.43-0.831-3.313,0.115
							c-0.883,0.947-0.831,2.43,0.115,3.313C668.226,107.71,669.709,107.658,670.592,106.712z"/>
					</g>
					<g>
						<path style="fill:#343154;" d="M662.37,115.527c0.883-0.947,0.831-2.43-0.115-3.313c-0.947-0.883-2.43-0.831-3.313,0.115
							c-0.883,0.947-0.831,2.43,0.115,3.313C660.004,116.525,661.487,116.474,662.37,115.527z"/>
					</g>
					<g>
						<path style="fill:#343154;" d="M654.148,124.343c0.883-0.947,0.831-2.43-0.115-3.313c-0.947-0.883-2.43-0.831-3.313,0.115
							c-0.883,0.947-0.831,2.43,0.115,3.313C651.782,125.341,653.265,125.289,654.148,124.343z"/>
					</g>
					<g>
						<path style="fill:#343154;" d="M645.926,133.158c0.883-0.947,0.831-2.43-0.115-3.313c-0.947-0.883-2.43-0.831-3.313,0.115
							c-0.883,0.947-0.831,2.43,0.115,3.313C643.56,134.156,645.043,134.105,645.926,133.158z"/>
					</g>
					<g>
						<path style="fill:#343154;" d="M637.704,141.974c0.883-0.947,0.831-2.43-0.115-3.313c-0.947-0.883-2.43-0.831-3.313,0.115
							c-0.883,0.947-0.831,2.43,0.115,3.313C635.338,142.972,636.821,142.92,637.704,141.974z"/>
					</g>
				</g>
				<g>
					<g>
						<path style="fill:#343154;" d="M669.753,89.446c0.883-0.947,0.831-2.43-0.115-3.313c-0.947-0.883-2.43-0.831-3.313,0.115
							c-0.883,0.947-0.831,2.43,0.115,3.313C667.387,90.444,668.87,90.392,669.753,89.446z"/>
					</g>
					<g>
						<path style="fill:#343154;" d="M661.531,98.261c0.883-0.947,0.831-2.43-0.115-3.313c-0.947-0.883-2.43-0.831-3.313,0.115
							c-0.883,0.947-0.831,2.43,0.115,3.313C659.165,99.259,660.648,99.208,661.531,98.261z"/>
					</g>
					<g>
						<path style="fill:#343154;" d="M653.309,107.077c0.883-0.947,0.831-2.43-0.115-3.313c-0.947-0.883-2.43-0.831-3.313,0.115
							c-0.883,0.947-0.831,2.43,0.115,3.313C650.943,108.075,652.427,108.023,653.309,107.077z"/>
					</g>
					<g>
						<path style="fill:#343154;" d="M645.087,115.892c0.883-0.947,0.831-2.43-0.115-3.313c-0.947-0.883-2.43-0.831-3.313,0.115
							c-0.883,0.947-0.831,2.43,0.115,3.313C642.721,116.891,644.204,116.839,645.087,115.892z"/>
					</g>
					<g>
						<path style="fill:#343154;" d="M636.865,124.708c0.883-0.947,0.831-2.43-0.116-3.313c-0.947-0.883-2.43-0.831-3.313,0.115
							c-0.883,0.947-0.831,2.43,0.115,3.313C634.499,125.706,635.982,125.654,636.865,124.708z"/>
					</g>
					<g>
						<path style="fill:#343154;" d="M628.643,133.523c0.883-0.947,0.831-2.43-0.115-3.313c-0.947-0.883-2.43-0.831-3.313,0.115
							c-0.883,0.947-0.831,2.43,0.115,3.313C626.277,134.522,627.76,134.47,628.643,133.523z"/>
					</g>
				</g>
				<g>
					<g>
						<path style="fill:#343154;" d="M660.693,80.995c0.883-0.947,0.831-2.43-0.115-3.313c-0.947-0.883-2.43-0.831-3.313,0.116
							c-0.883,0.947-0.831,2.43,0.115,3.313C658.327,81.993,659.81,81.942,660.693,80.995z"/>
					</g>
					<g>
						<path style="fill:#343154;" d="M652.471,89.811c0.883-0.947,0.831-2.43-0.115-3.313c-0.947-0.883-2.43-0.831-3.313,0.115
							c-0.883,0.947-0.831,2.43,0.115,3.313C650.105,90.809,651.588,90.757,652.471,89.811z"/>
					</g>
					<g>
						<path style="fill:#343154;" d="M644.249,98.626c0.883-0.947,0.831-2.43-0.115-3.313c-0.947-0.883-2.43-0.831-3.313,0.115
							c-0.883,0.947-0.831,2.43,0.115,3.313C641.883,99.625,643.366,99.573,644.249,98.626z"/>
					</g>
					<g>
						<path style="fill:#343154;" d="M636.027,107.442c0.883-0.947,0.831-2.43-0.115-3.313c-0.947-0.883-2.43-0.831-3.313,0.115
							c-0.883,0.947-0.831,2.43,0.115,3.313C633.661,108.44,635.144,108.388,636.027,107.442z"/>
					</g>
					<g>
						<path style="fill:#343154;" d="M627.805,116.257c0.883-0.947,0.831-2.43-0.115-3.313c-0.947-0.883-2.43-0.831-3.313,0.115
							s-0.831,2.43,0.115,3.313C625.439,117.256,626.922,117.204,627.805,116.257z"/>
					</g>
					<g>
						<path style="fill:#343154;" d="M619.583,125.073c0.883-0.947,0.831-2.43-0.115-3.313c-0.947-0.883-2.43-0.831-3.313,0.115
							c-0.883,0.947-0.831,2.43,0.115,3.313C617.217,126.071,618.7,126.019,619.583,125.073z"/>
					</g>
				</g>
			</g>
			<g>
				<g>
					<g>
						<path style="fill:#FF9641;" d="M660.301,241.069c11.875,11.875,11.875,31.128,0,43.003c-11.875,11.875-31.128,11.875-43.003,0
							c-11.875-11.875-11.875-31.128,0-43.003C629.173,229.195,648.426,229.195,660.301,241.069z"/>
					</g>
				</g>
				<g>
					<g>
						<path style="fill:#343154;" d="M590.434,281.731c6.772,6.772,17.751,6.772,24.523,0c6.772-6.772,6.772-17.751,0-24.523
							c-6.772-6.772-17.751-6.772-24.523,0C583.662,263.98,583.662,274.959,590.434,281.731z M611.826,260.338
							c5.043,5.043,5.043,13.219,0,18.262c-5.043,5.043-13.219,5.043-18.262,0c-5.043-5.043-5.043-13.219,0-18.262
							C598.607,255.295,606.783,255.295,611.826,260.338z"/>
					</g>
				</g>
			</g>
			<g>
				<g>
					<g>
						<path style="fill:#5EB4CC;" d="M680.151,411.464c28.707,28.707,75.25,28.707,103.957,0c28.707-28.707,28.707-75.25,0-103.957
							c-28.707-28.707-75.25-28.707-103.957,0S651.444,382.757,680.151,411.464z M770.837,320.779
							c21.378,21.378,21.378,56.037,0,77.415c-21.378,21.378-56.037,21.378-77.415,0c-21.377-21.377-21.377-56.037,0-77.415
							C714.8,299.401,749.459,299.401,770.837,320.779z"/>
					</g>
				</g>
			</g>
			<g>
				<g>
					<g>
						<path style="fill:#FFFFFF;" d="M701.358,390.258c16.995,16.995,44.549,16.995,61.544,0c16.995-16.995,16.995-44.549,0-61.544
							c-16.995-16.995-44.549-16.995-61.544,0C684.363,345.709,684.363,373.263,701.358,390.258z M755.045,336.571
							c12.656,12.656,12.656,33.175,0,45.83c-12.656,12.656-33.175,12.656-45.831,0c-12.656-12.656-12.656-33.175,0-45.83
							C721.87,323.915,742.389,323.915,755.045,336.571z"/>
					</g>
				</g>
			</g>
			<g>
				<g>
					
						<rect x="671.36" y="248.59" transform="matrix(0.7071 -0.7071 0.7071 0.7071 -22.3242 569.6736)" style="fill:#FFC46B;" width="10.269" height="126.389"/>
				</g>
				<g>
					
						<rect x="683.316" y="236.634" transform="matrix(0.7071 -0.7071 0.7071 0.7071 -10.3686 574.6255)" style="fill:#FFC46B;" width="10.269" height="126.389"/>
				</g>
			</g>
			<g>
				<g>
					
						<rect x="465.074" y="-11.091" transform="matrix(0.7071 -0.7071 0.7071 0.7071 145.8017 348.3762)" style="fill:#5EB4CC;" width="56.709" height="18.561"/>
				</g>
				<g>
					
						<rect x="484.015" y="6.353" transform="matrix(0.7071 -0.7071 0.7071 0.7071 137.9558 367.3169)" style="fill:#5EB4CC;" width="56.709" height="21.557"/>
				</g>
				<g>
					<path style="fill:#5EB4CC;" d="M559.54,24.203L544.797,9.46c-13.366,13.366-26.733,26.733-40.099,40.099l14.743,14.743
						L559.54,24.203z"/>
				</g>
				<g>
					
						<rect x="523.89" y="45.697" transform="matrix(0.7071 -0.7071 0.7071 0.7071 121.4393 407.1922)" style="fill:#5EB4CC;" width="56.709" height="22.617"/>
				</g>
				<g>
					<path style="fill:#5EB4CC;" d="M560.972,105.833l10.298,10.298l40.099-40.099l-10.103-10.103
						C587.871,79.267,574.445,92.574,560.972,105.833z"/>
				</g>
				<g>
					<path style="fill:#5EB4CC;" d="M596.509,61.172L585.047,49.71c-13.366,13.366-26.733,26.733-40.099,40.099l11.267,11.267
						C569.688,87.817,583.114,74.51,596.509,61.172z"/>
				</g>
				<g>
					<g>
						<path style="fill:#343154;" d="M506.915-40.287l98.797,98.797L571.27,92.952L472.473-5.845L506.915-40.287 M506.915-45.944
							L466.816-5.845L571.27,98.609l40.099-40.099L506.915-45.944L506.915-45.944z"/>
					</g>
				</g>
			</g>
			<g>
				<g>
					
						<ellipse transform="matrix(0.1613 -0.9869 0.9869 0.1613 169.7838 868.0541)" style="fill:#FF9641;" cx="595.628" cy="334.132" rx="9.706" ry="9.706"/>
				</g>
				<g>
					<path style="fill:none;stroke:#FFAF6D;stroke-width:3;stroke-linejoin:round;stroke-miterlimit:10;" d="M619.94,347.092
						h-48.624c-7.158,0-12.961-5.803-12.961-12.961l0,0c0-7.158,5.803-12.961,12.961-12.961h48.624
						c7.158,0,12.961,5.803,12.961,12.961l0,0C632.901,341.29,627.098,347.092,619.94,347.092z"/>
					<g>
						
							<ellipse transform="matrix(0.1602 -0.9871 0.9871 0.1602 189.503 890.9973)" style="fill:#5EB4CC;" cx="618.373" cy="334.132" rx="9.706" ry="9.706"/>
					</g>
					<g>
						
							<ellipse transform="matrix(0.7071 -0.7071 0.7071 0.7071 -68.3996 503.1319)" style="fill:#5EB4CC;" cx="573.134" cy="334.132" rx="9.706" ry="9.706"/>
					</g>
				</g>
			</g>
			<g>
				<g>
					<polygon style="fill:#FFAF6D;" points="512.165,440.465 503.999,448.631 508.241,448.631 516.407,440.465 					"/>
				</g>
				<g>
					<g>
						<polygon style="fill:#FF9641;" points="466.574,500 538.443,428.131 534.2,428.131 462.332,500 						"/>
					</g>
					<g>
						<polygon style="fill:#FF9641;" points="545.442,421.131 567.109,399.465 562.866,399.465 541.2,421.131 						"/>
					</g>
					<g>
						<polygon style="fill:#FFAF6D;" points="456.872,500 500.574,456.298 496.332,456.298 452.63,500 						"/>
					</g>
					<g>
						<polygon style="fill:#5EB4CC;" points="447.171,500 526.372,420.798 522.13,420.798 442.929,500 						"/>
					</g>
				</g>
			</g>
		</g>
	</g>
</g>
<g id="OBJECTS">
</g>
</svg>
